<?xml version="1.0" encoding="UTF-8"?>
<svg id="Camada_1" xmlns="http://www.w3.org/2000/svg" version="1.1" viewBox="0 0 31.9 32">
  <!-- Generator: Adobe Illustrator 29.7.1, SVG Export Plug-In . SVG Version: 2.1.1 Build 8)  -->
  <defs>
    <style>
      .st0 {
        fill: #ff9a00;
      }
    </style>
  </defs>
  <g id="Camada_x5F_1">
    <g id="_1909783979072">
      <g id="g3">
        <g id="g2">
          <path id="path1" class="st0" d="M9.8,30.8C4.2,28.5.5,23.1.5,16.7s.7-5.7,2.2-8c1.3-.4,2.8-.5,4.2-.5h0c5.4,0,10.2,2.2,13.7,5.7s5.3,7.5,5.7,12.3c-1-3.3-2.7-6-4.9-8.3-3.5-3.5-8.3-5.7-13.7-5.7h-1.1c-.7,2-1.1,4.2-1.1,6.4h0c0,4.7,1.7,8.9,4.3,12.2h0Z"/>
          <path id="path2" class="st0" d="M15.9,1.2c8.4,0,15.4,6.9,15.4,15.4s-1.7,7.8-4.2,10.6c-.1-5.4-2.4-10.2-5.9-13.9-3.7-3.6-8.8-5.9-14.3-5.9h0c-1.2,0-2.5.1-3.6.4C6.1,3.9,10.6,1.2,15.9,1.2ZM7,5.9s1.5.1,1.4.1c5.2.4,10.1,2.5,13.9,6.3,3,3,4.9,6.8,5.9,10.8,1-2,1.6-4.2,1.6-6.5,0-7.7-6.3-13.9-13.9-13.9s-6.4,1.1-8.9,3.1h0Z"/>
        </g>
      </g>
    </g>
  </g>
</svg>